<svg xmlns="http://www.w3.org/2000/svg" fill="none" viewBox="0 0 160 40"><path fill="#fff" d="m70.44 15.48 4.25-.02 3.4 10.48 3.36-10.48h4.1L80.1 29.85h-4.2zm29.91 1.85q1.8 2 1.8 5.59 0 .64-.03.99H91.8q.35 1.35 1.34 2.12.99.76 2.38.76a5 5 0 0 0 3.63-1.52l2.17 2.19a7 7 0 0 1-2.66 1.88q-1.56.66-3.49.66-2.26 0-3.97-.9a6.4 6.4 0 0 1-2.62-2.58 8 8 0 0 1-.92-3.82q0-2.19.93-3.87a6.6 6.6 0 0 1 2.62-2.59 8 8 0 0 1 3.86-.92q3.47 0 5.28 2m-2.07 4.14a3.3 3.3 0 0 0-.91-2.27 3 3 0 0 0-2.28-.86q-1.33 0-2.23.84a4 4 0 0 0-1.14 2.3zm14.65-5.44q1.2-.7 2.8-.72v3.88l-.64-.03q-1.9 0-3 1.03-1.12 1.03-1.12 2.74v6.93h-4.11v-14.4h4.11v2.6q.75-1.34 1.96-2.03m6.36-.54h12.27v2.6l-7.4 8.52h7.64v3.27l-12.78-.03v-2.6l7.4-8.52-7.13-.03zM148 17.33q1.8 2 1.8 5.59 0 .64-.03.99h-10.32q.35 1.35 1.34 2.12.99.76 2.38.76a5 5 0 0 0 3.63-1.52l2.17 2.19a7 7 0 0 1-2.66 1.88 9 9 0 0 1-3.49.66q-2.26 0-3.97-.9-1.7-.92-2.62-2.58a8 8 0 0 1-.92-3.82q0-2.19.94-3.87a6.6 6.6 0 0 1 2.62-2.59 8 8 0 0 1 3.85-.92q3.47 0 5.28 2m-2.07 4.14a3.3 3.3 0 0 0-.91-2.27 3 3 0 0 0-2.28-.86q-1.33 0-2.23.84a4 4 0 0 0-1.13 2.3zM154.64 10h4.12v19.84h-4.12z"/><path fill="#7D72FF" d="M22.8 25.08 2 37.15 22.8 0z"/><path fill="#0AE1FF" d="m22.8 25.08 20.8 12.07L22.8 0z"/><path fill="#0C0C0C" d="M43.6 37.15 22.8 25.08 2 37.15z"/><path fill="#CBFA05" d="m46.64 22.69-19.91-.05L57.1 4.74z"/><path fill="#6AB026" d="M46.64 22.69 56.49 40l.62-35.25z"/><path fill="#0C0C0C" d="m56.49 40-9.85-17.31-19.91-.05z"/></svg>